<svg width="116" height="32" viewBox="0 0 116 32" fill="none" xmlns="http://www.w3.org/2000/svg">
<path d="M51.597 23H49.013L47.284 18.497C47.132 18.079 46.8977 17.7877 46.581 17.623C46.2643 17.4583 45.8527 17.376 45.346 17.376H42.895V23H40.463V9.472H46.258C47.7907 9.472 48.956 9.80767 49.754 10.479C50.552 11.1503 50.951 12.113 50.951 13.367C50.951 14.2663 50.7103 15.0327 50.229 15.666C49.7603 16.2867 49.089 16.73 48.215 16.996C49.013 17.1607 49.5893 17.718 49.944 18.668L51.597 23ZM45.916 15.476C46.8407 15.476 47.5247 15.305 47.968 14.963C48.4113 14.621 48.633 14.1017 48.633 13.405C48.633 12.721 48.4113 12.2143 47.968 11.885C47.5373 11.543 46.8533 11.372 45.916 11.372H42.857V15.476H45.916ZM62.4308 18.326H55.8188C55.8695 19.352 56.1228 20.112 56.5788 20.606C57.0475 21.0873 57.7378 21.328 58.6498 21.328C59.7012 21.328 60.6765 20.986 61.5758 20.302L62.2598 21.936C61.8038 22.3033 61.2402 22.601 60.5688 22.829C59.9102 23.0443 59.2388 23.152 58.5548 23.152C56.9842 23.152 55.7492 22.7087 54.8498 21.822C53.9505 20.9353 53.5008 19.7193 53.5008 18.174C53.5008 17.1987 53.6972 16.331 54.0898 15.571C54.4825 14.811 55.0335 14.222 55.7428 13.804C56.4522 13.3733 57.2565 13.158 58.1558 13.158C59.4732 13.158 60.5118 13.5887 61.2718 14.45C62.0445 15.2987 62.4308 16.4703 62.4308 17.965V18.326ZM58.2128 14.868C57.5795 14.868 57.0602 15.058 56.6548 15.438C56.2622 15.8053 56.0088 16.3437 55.8948 17.053H60.3598C60.2838 16.331 60.0622 15.7863 59.6948 15.419C59.3402 15.0517 58.8462 14.868 58.2128 14.868ZM74.19 13.405C74.076 14.165 74.019 15.0707 74.019 16.122V27.104H71.644V21.537C71.3527 22.0563 70.9347 22.4553 70.39 22.734C69.858 23.0127 69.25 23.152 68.566 23.152C67.73 23.152 66.989 22.9493 66.343 22.544C65.697 22.1387 65.1967 21.5623 64.842 20.815C64.4873 20.0677 64.31 19.2 64.31 18.212C64.31 17.224 64.4873 16.35 64.842 15.59C65.2093 14.8173 65.716 14.222 66.362 13.804C67.008 13.3733 67.7427 13.158 68.566 13.158C69.3007 13.158 69.953 13.3227 70.523 13.652C71.093 13.9813 71.511 14.4437 71.777 15.039L71.948 13.405H74.19ZM69.212 21.29C69.9973 21.29 70.6053 21.0177 71.036 20.473C71.4667 19.9283 71.682 19.162 71.682 18.174C71.682 17.1607 71.4667 16.3817 71.036 15.837C70.6053 15.2923 69.991 15.02 69.193 15.02C68.4077 15.02 67.7933 15.305 67.35 15.875C66.9193 16.4323 66.704 17.2113 66.704 18.212C66.704 19.2 66.9193 19.96 67.35 20.492C67.7933 21.024 68.414 21.29 69.212 21.29ZM85.7457 13.405V23H83.4277V21.518C83.1237 22.05 82.7183 22.4553 82.2117 22.734C81.705 23.0127 81.1223 23.152 80.4637 23.152C78.1203 23.152 76.9487 21.8347 76.9487 19.2V13.405H79.3047V19.219C79.3047 19.9157 79.444 20.4287 79.7227 20.758C80.014 21.0873 80.4573 21.252 81.0527 21.252C81.7493 21.252 82.3067 21.024 82.7247 20.568C83.1427 20.112 83.3517 19.504 83.3517 18.744V13.405H85.7457ZM97.901 13.405V23H95.564V21.461C95.2727 21.993 94.8547 22.411 94.31 22.715C93.7654 23.0063 93.1447 23.152 92.448 23.152C91.612 23.152 90.871 22.9493 90.225 22.544C89.579 22.1387 89.0787 21.5623 88.724 20.815C88.3694 20.0677 88.192 19.2 88.192 18.212C88.192 17.224 88.3694 16.35 88.724 15.59C89.0914 14.8173 89.598 14.222 90.244 13.804C90.89 13.3733 91.6247 13.158 92.448 13.158C93.1447 13.158 93.7654 13.31 94.31 13.614C94.8547 13.9053 95.2727 14.317 95.564 14.849V13.405H97.901ZM93.094 21.29C93.8794 21.29 94.4874 21.0177 94.918 20.473C95.3487 19.9283 95.564 19.162 95.564 18.174C95.564 17.1607 95.3487 16.3817 94.918 15.837C94.4874 15.2923 93.873 15.02 93.075 15.02C92.2897 15.02 91.6754 15.305 91.232 15.875C90.8014 16.4323 90.586 17.2113 90.586 18.212C90.586 19.2 90.8014 19.96 91.232 20.492C91.6754 21.024 92.296 21.29 93.094 21.29ZM106.056 13.177C106.423 13.177 106.74 13.2277 107.006 13.329L106.987 15.495C106.581 15.3303 106.163 15.248 105.733 15.248C104.922 15.248 104.301 15.4823 103.871 15.951C103.453 16.4197 103.244 17.0403 103.244 17.813V23H100.888V16.122C100.888 15.1087 100.837 14.203 100.736 13.405H102.959L103.149 15.096C103.389 14.4753 103.769 14.0003 104.289 13.671C104.808 13.3417 105.397 13.177 106.056 13.177ZM112.621 15.191V19.485C112.621 20.6123 113.147 21.176 114.198 21.176C114.49 21.176 114.806 21.1253 115.148 21.024V22.905C114.73 23.057 114.224 23.133 113.628 23.133C112.539 23.133 111.703 22.829 111.12 22.221C110.538 21.613 110.246 20.739 110.246 19.599V15.191H108.403V13.405H110.246V11.068L112.621 10.27V13.405H115.167V15.191H112.621Z" fill="white"/>
<circle cx="16" cy="16" r="16" fill="#3751FF"/>
<path d="M11 9.01855C11 8.46627 11.4477 8.01855 12 8.01855H17.2284C20.0018 8.01855 20.4786 8.52125 22 9.99997C22.8827 10.849 23.3741 14.3042 21 15.5C19.2393 16.3868 17.8643 15.365 17.8643 16.5093C22.4227 18.1951 23.7698 22.7653 22.2325 24.2599C20.711 25.7387 17.7078 16.9822 14.9344 16.9822L12.4383 24.2599H12C11.4477 24.2599 11 23.8122 11 23.2599V9.01855Z" fill="url(#paint0_linear)"/>
<defs>
<linearGradient id="paint0_linear" x1="10.1911" y1="6.80559" x2="24.6775" y2="24.1954" gradientUnits="userSpaceOnUse">
<stop stop-color="white" stop-opacity="0.7"/>
<stop offset="1" stop-color="white"/>
</linearGradient>
</defs>
</svg>
