<svg width="1080" height="2216" viewBox="0 0 1080 2216" fill="none" xmlns="http://www.w3.org/2000/svg">
<g clip-path="url(#clip0)">
<rect width="1080" height="2216" fill="#363740"/>
<path d="M-1 0H1080V2220H-1V0Z" fill="url(#paint0_linear)"/>
<path d="M239.666 295.975H227.996V322H213.348V250.906H239.764C248.162 250.906 254.64 252.778 259.197 256.521C263.755 260.265 266.033 265.555 266.033 272.391C266.033 277.241 264.975 281.294 262.859 284.549C260.776 287.771 257.602 290.343 253.338 292.264L268.719 321.316V322H252.996L239.666 295.975ZM227.996 284.109H239.812C243.491 284.109 246.339 283.182 248.357 281.326C250.376 279.438 251.385 276.85 251.385 273.562C251.385 270.21 250.424 267.573 248.504 265.652C246.616 263.732 243.702 262.771 239.764 262.771H227.996V284.109ZM301.004 322.977C293.256 322.977 286.941 320.6 282.058 315.848C277.208 311.095 274.783 304.764 274.783 296.854V295.486C274.783 290.18 275.808 285.444 277.859 281.277C279.91 277.078 282.807 273.855 286.55 271.609C290.326 269.331 294.623 268.191 299.441 268.191C306.668 268.191 312.348 270.47 316.482 275.027C320.649 279.585 322.732 286.046 322.732 294.412V300.174H289.089C289.545 303.624 290.912 306.391 293.191 308.475C295.502 310.558 298.416 311.6 301.931 311.6C307.367 311.6 311.615 309.63 314.675 305.691L321.609 313.455C319.493 316.45 316.629 318.794 313.015 320.486C309.402 322.146 305.398 322.977 301.004 322.977ZM299.392 279.617C296.593 279.617 294.314 280.561 292.556 282.449C290.831 284.337 289.724 287.039 289.236 290.555H308.865V289.432C308.8 286.307 307.953 283.898 306.326 282.205C304.698 280.48 302.387 279.617 299.392 279.617ZM328.991 295.096C328.991 286.795 330.831 280.236 334.509 275.418C338.22 270.6 343.298 268.191 349.743 268.191C355.407 268.191 359.916 270.356 363.269 274.686L364.196 269.168H376.599V342.312H362.439V317.459C359.183 321.137 354.919 322.977 349.646 322.977C343.363 322.977 338.35 320.535 334.607 315.652C330.863 310.77 328.991 303.917 328.991 295.096ZM343.103 296.121C343.103 301.167 343.982 305.008 345.739 307.645C347.53 310.281 350.036 311.6 353.259 311.6C357.588 311.6 360.648 309.874 362.439 306.424V284.598C360.681 281.277 357.654 279.617 353.357 279.617C350.101 279.617 347.579 280.936 345.788 283.572C343.998 286.209 343.103 290.392 343.103 296.121ZM419.772 316.629C416.289 320.861 411.471 322.977 405.319 322.977C399.655 322.977 395.326 321.349 392.331 318.094C389.369 314.839 387.855 310.07 387.79 303.787V269.168H401.901V303.299C401.901 308.8 404.408 311.551 409.421 311.551C414.206 311.551 417.494 309.891 419.284 306.57V269.168H433.444V322H420.163L419.772 316.629ZM475.104 322C474.453 320.73 473.981 319.152 473.688 317.264C470.27 321.072 465.827 322.977 460.358 322.977C455.182 322.977 450.885 321.479 447.467 318.484C444.082 315.49 442.389 311.714 442.389 307.156C442.389 301.557 444.456 297.26 448.59 294.266C452.757 291.271 458.763 289.757 466.608 289.725H473.102V286.697C473.102 284.256 472.467 282.303 471.198 280.838C469.961 279.373 467.991 278.641 465.289 278.641C462.913 278.641 461.041 279.21 459.674 280.35C458.34 281.489 457.672 283.051 457.672 285.037H443.561C443.561 281.977 444.505 279.145 446.393 276.541C448.281 273.937 450.95 271.902 454.401 270.438C457.851 268.94 461.725 268.191 466.022 268.191C472.532 268.191 477.692 269.835 481.5 273.123C485.342 276.378 487.262 280.968 487.262 286.893V309.793C487.295 314.806 487.995 318.598 489.362 321.17V322H475.104ZM463.434 312.186C465.517 312.186 467.438 311.73 469.196 310.818C470.954 309.874 472.256 308.621 473.102 307.059V297.977H467.829C460.765 297.977 457.005 300.418 456.549 305.301L456.5 306.131C456.5 307.889 457.119 309.337 458.356 310.477C459.593 311.616 461.286 312.186 463.434 312.186ZM528.189 282.4C526.269 282.14 524.576 282.01 523.111 282.01C517.773 282.01 514.273 283.816 512.613 287.43V322H498.502V269.168H511.832L512.223 275.467C515.055 270.617 518.977 268.191 523.99 268.191C525.553 268.191 527.018 268.403 528.385 268.826L528.189 282.4ZM554.761 256.18V269.168H563.795V279.52H554.761V305.887C554.761 307.84 555.136 309.24 555.884 310.086C556.633 310.932 558.065 311.355 560.181 311.355C561.744 311.355 563.127 311.242 564.332 311.014V321.707C561.565 322.553 558.716 322.977 555.787 322.977C545.891 322.977 540.845 317.98 540.65 307.986V279.52H532.935V269.168H540.65V256.18H554.761Z" fill="white"/>
<circle cx="123.565" cy="285.565" r="69.5652" fill="#FE5200"/>
<path d="M101.826 251.863C101.826 251.311 102.274 250.863 102.826 250.863H128.906C140.965 250.863 143.037 253.049 149.652 259.478C153.49 263.17 155.626 278.192 145.304 283.391C137.649 287.247 131.671 282.804 131.671 287.779C151.49 295.109 157.347 314.98 150.663 321.478C144.048 327.907 130.991 289.836 118.932 289.836L108.079 321.478H102.826C102.274 321.478 101.826 321.03 101.826 320.478V251.863Z" fill="url(#paint1_linear)"/>
<path d="M137.392 808.524C137.392 797.235 131.208 788.083 123.579 788.083C115.95 788.083 109.765 797.235 109.765 808.524V879.086C109.765 890.376 115.95 899.528 123.579 899.528C131.208 899.528 137.392 890.376 137.392 879.086V808.524Z" fill="black"/>
<path d="M123.579 1018.14C138.885 1018.14 151.293 999.78 151.293 977.129C151.293 954.478 138.885 936.116 123.579 936.116C108.273 936.116 95.8646 954.478 95.8646 977.129C95.8646 999.78 108.273 1018.14 123.579 1018.14Z" fill="#FBDC8E"/>
<path d="M123.579 853.478C112.604 853.473 101.736 856.669 91.5962 862.881C81.4561 869.093 72.2422 878.201 64.481 889.683C56.7197 901.166 50.563 914.799 46.3625 929.803C42.162 944.807 40 960.889 40 977.13H207.157C207.157 960.889 204.995 944.807 200.795 929.803C196.594 914.799 190.438 901.166 182.676 889.683C174.915 878.201 165.701 869.093 155.561 862.881C145.421 856.669 134.553 853.473 123.579 853.478V853.478Z" fill="#FE5200"/>
<path d="M123.579 811.625V363" stroke="black" stroke-width="2" stroke-linecap="round" stroke-linejoin="round"/>
<path d="M750.162 1348.04C750.193 1342.02 749.298 1336.05 747.532 1330.52C745.765 1324.98 743.166 1319.99 739.897 1315.86C736.627 1311.73 732.757 1308.54 728.529 1306.51C724.3 1304.47 719.804 1303.63 715.32 1304.02C710.837 1304.42 706.462 1306.05 702.47 1308.81C698.479 1311.58 694.955 1315.42 692.119 1320.09C689.283 1324.76 687.196 1330.16 685.989 1335.97C684.781 1341.77 684.479 1347.84 685.101 1353.8L591.187 1518.64C587.179 1529.38 585.625 1541.47 586.72 1553.39C587.814 1565.31 591.509 1576.53 597.341 1585.65L604.708 1597.17L638.51 1588.11L676.821 1542.8L672.313 1491.45L719.637 1391.78L719.576 1391.71C727.86 1391 735.632 1386.1 741.313 1377.98C746.995 1369.87 750.158 1359.17 750.162 1348.04V1348.04Z" fill="#FFC39F"/>
<path d="M100.708 2153.9L85.3781 2077.59L297.691 1962.03L320.316 2074.66L100.708 2153.9Z" fill="#FFC39F"/>
<path d="M49.4278 2193.28L0 1947.23L2.322 1946.39C21.2729 1939.55 41.4742 1943.08 58.4825 1956.21C75.4909 1969.33 87.9132 1990.97 93.0172 2016.37L93.0185 2016.38L123.207 2166.66L49.4278 2193.28Z" fill="#2F2E41"/>
<path d="M393.16 2141.71L345.476 2095.23L456.544 1826.59L526.923 1895.19L393.16 2141.71Z" fill="#FFC39F"/>
<path d="M371.708 2215.52L217.947 2065.65L219.362 2063.04C230.905 2041.77 248.28 2027.51 267.665 2023.41C287.051 2019.3 306.858 2025.69 322.731 2041.16L322.735 2041.16L416.647 2132.7L371.708 2215.52Z" fill="#2F2E41"/>
<path d="M798.51 1766.31L678.512 1610.07C668.039 1596.43 654.245 1588.32 639.667 1587.23C625.089 1586.14 610.707 1592.14 599.167 1604.13L372.592 1941.49L392.874 1983.77L609.213 1787.45L755.693 2044.18L895.412 1950.55L798.51 1766.31Z" fill="#251DC0"/>
<path d="M746.68 1799.53L658.792 1790.47L595.144 1769.79C591.548 1762.27 586.326 1756.41 580.175 1752.98C574.024 1749.55 567.238 1748.72 560.725 1750.6C554.213 1752.48 548.285 1756.99 543.736 1763.51C539.186 1770.03 536.232 1778.26 535.268 1787.1C534.304 1795.93 535.377 1804.95 538.344 1812.95C541.31 1820.94 546.028 1827.53 551.866 1831.83C557.703 1836.14 564.382 1837.95 571.009 1837.02C577.635 1836.09 583.891 1832.48 588.942 1826.65L588.932 1826.72L627.243 1847.86L791.75 1923.37L812.032 1902.22L746.68 1799.53Z" fill="#FFC39F"/>
<path d="M958.512 2125.73L908.933 2168.02H850.34L577.665 2032.1L178.789 2128.75L167.522 2013.98L532.595 1799.53L852.597 1941.49L958.512 2125.73Z" fill="#221CB4"/>
<path d="M852.596 1391.78C901.135 1391.78 940.484 1339.04 940.484 1273.99C940.484 1208.93 901.135 1156.19 852.596 1156.19C804.057 1156.19 764.708 1208.93 764.708 1273.99C764.708 1339.04 804.057 1391.78 852.596 1391.78Z" fill="#FFC39F"/>
<path d="M1080 1744.29C1080 1815.38 1071.64 1886.03 1055.23 1953.63L1048.65 1980.76L1017.1 2174.06L983.301 2186.14L958.512 2143.86L908.934 2095.53L872.878 2017L841.959 1947.95L832.314 1926.39L798.511 1699.86L670.06 1603.21L627.242 1594.15L636.257 1560.92L674.567 1491.45L712.877 1485.41L724.144 1473.33L733.158 1479.37L782.849 1505.03L943.954 1413.8L967.526 1418.97L1048.65 1509.58C1069.39 1584.71 1080.01 1664.18 1080 1744.29Z" fill="url(#paint2_linear)"/>
<path opacity="0.1" d="M1055.41 1717.98L969.779 1793.49L841.96 1947.95L832.315 1926.39L805.271 1745.17H812.033L881.893 1573.01L1055.41 1717.98Z" fill="black"/>
<path d="M899.722 1566.3L812.033 1727.04L771.469 1787.45L735.414 1799.53L832.315 1941.49L969.779 1775.37L1034.06 1665.77V1623.76C1034.06 1553.84 950.275 1518.01 899.722 1566.3V1566.3Z" fill="#3027F2"/>
<path d="M784.237 1186.4L774.714 1191.31C773.269 1190 772.03 1188.32 771.069 1186.37C770.108 1184.41 769.444 1182.22 769.114 1179.93C768.784 1177.63 768.794 1175.27 769.145 1172.97C769.496 1170.68 770.181 1168.51 771.16 1166.57C771.211 1166.47 771.263 1166.37 771.316 1166.27L753.719 1165.16C765.015 1145 779.377 1128.28 795.855 1116.11C812.333 1103.94 830.551 1096.6 849.304 1094.58C868.057 1092.55 886.917 1095.88 904.636 1104.36C922.355 1112.83 938.53 1126.25 952.09 1143.73C952.892 1140.03 961.625 1147.23 965.191 1154.53C966.389 1148.51 974.578 1177.6 977.474 1198.16C978.815 1191.32 983.971 1202.37 979.454 1212.97C982.316 1212.41 983.609 1222.23 981.393 1227.7C984.524 1225.72 983.996 1237.44 980.602 1245.27C985.069 1244.74 980.22 1368.07 913.173 1359.08C908.505 1330.34 909.82 1332.13 904.324 1295.16C901.766 1291.52 898.964 1288.21 896.167 1284.9L881.039 1267C863.448 1246.19 847.446 1220.51 824.012 1212.73C807.908 1207.38 797.725 1206.18 806.501 1181.85C798.572 1186.29 791.167 1192.88 783.167 1197C783.274 1193.6 784.392 1189.8 784.237 1186.4Z" fill="#FE5200"/>
<path d="M896.54 1308.72C905.252 1308.72 912.314 1299.26 912.314 1287.58C912.314 1275.9 905.252 1266.44 896.54 1266.44C887.827 1266.44 880.765 1275.9 880.765 1287.58C880.765 1299.26 887.827 1308.72 896.54 1308.72Z" fill="#FFB9B9"/>
</g>
<defs>
<linearGradient id="paint0_linear" x1="540" y1="1512" x2="539.5" y2="2220" gradientUnits="userSpaceOnUse">
<stop stop-color="#232958"/>
<stop offset="1"/>
</linearGradient>
<linearGradient id="paint1_linear" x1="98.3092" y1="245.59" x2="161.294" y2="321.197" gradientUnits="userSpaceOnUse">
<stop stop-color="white" stop-opacity="0.7"/>
<stop offset="1" stop-color="white"/>
</linearGradient>
<linearGradient id="paint2_linear" x1="853.621" y1="1413.8" x2="853.621" y2="2186.14" gradientUnits="userSpaceOnUse">
<stop stop-color="#2222A8"/>
<stop offset="1" stop-color="#161675"/>
</linearGradient>
<clipPath id="clip0">
<rect width="1080" height="2216" fill="white"/>
</clipPath>
</defs>
</svg>
