<svg width="1080" height="2000" viewBox="0 0 1080 2000" fill="none" xmlns="http://www.w3.org/2000/svg">
<path d="M239.666 79.9746H227.996V106H213.348V34.9062H239.764C248.162 34.9062 254.64 36.778 259.197 40.5215C263.755 44.265 266.033 49.5547 266.033 56.3906C266.033 61.2409 264.975 65.2936 262.859 68.5488C260.776 71.7715 257.602 74.3431 253.338 76.2637L268.719 105.316V106H252.996L239.666 79.9746ZM227.996 68.1094H239.812C243.491 68.1094 246.339 67.1816 248.357 65.3262C250.376 63.4382 251.385 60.8503 251.385 57.5625C251.385 54.2096 250.424 51.5729 248.504 49.6523C246.616 47.7318 243.702 46.7715 239.764 46.7715H227.996V68.1094ZM301.004 106.977C293.256 106.977 286.941 104.6 282.058 99.8477C277.208 95.0951 274.783 88.7637 274.783 80.8535V79.4863C274.783 74.1803 275.808 69.444 277.859 65.2773C279.91 61.0781 282.807 57.8555 286.55 55.6094C290.326 53.3307 294.623 52.1914 299.441 52.1914C306.668 52.1914 312.348 54.4701 316.482 59.0273C320.649 63.5846 322.732 70.0462 322.732 78.4121V84.1738H289.089C289.545 87.6243 290.912 90.3913 293.191 92.4746C295.502 94.5579 298.416 95.5996 301.931 95.5996C307.367 95.5996 311.615 93.6302 314.675 89.6914L321.609 97.4551C319.493 100.45 316.629 102.794 313.015 104.486C309.402 106.146 305.398 106.977 301.004 106.977ZM299.392 63.6172C296.593 63.6172 294.314 64.5612 292.556 66.4492C290.831 68.3372 289.724 71.0391 289.236 74.5547H308.865V73.4316C308.8 70.3066 307.953 67.8978 306.326 66.2051C304.698 64.4798 302.387 63.6172 299.392 63.6172ZM328.991 79.0957C328.991 70.7949 330.831 64.2357 334.509 59.418C338.22 54.6003 343.298 52.1914 349.743 52.1914C355.407 52.1914 359.916 54.3561 363.269 58.6855L364.196 53.168H376.599V126.312H362.439V101.459C359.183 105.137 354.919 106.977 349.646 106.977C343.363 106.977 338.35 104.535 334.607 99.6523C330.863 94.7695 328.991 87.9173 328.991 79.0957ZM343.103 80.1211C343.103 85.1667 343.982 89.0078 345.739 91.6445C347.53 94.2812 350.036 95.5996 353.259 95.5996C357.588 95.5996 360.648 93.8743 362.439 90.4238V68.5977C360.681 65.2773 357.654 63.6172 353.357 63.6172C350.101 63.6172 347.579 64.9355 345.788 67.5723C343.998 70.209 343.103 74.3919 343.103 80.1211ZM419.772 100.629C416.289 104.861 411.471 106.977 405.319 106.977C399.655 106.977 395.326 105.349 392.331 102.094C389.369 98.8385 387.855 94.0697 387.79 87.7871V53.168H401.901V87.2988C401.901 92.8001 404.408 95.5508 409.421 95.5508C414.206 95.5508 417.494 93.8906 419.284 90.5703V53.168H433.444V106H420.163L419.772 100.629ZM475.104 106C474.453 104.73 473.981 103.152 473.688 101.264C470.27 105.072 465.827 106.977 460.358 106.977C455.182 106.977 450.885 105.479 447.467 102.484C444.082 99.4896 442.389 95.7135 442.389 91.1562C442.389 85.5573 444.456 81.2604 448.59 78.2656C452.757 75.2708 458.763 73.7572 466.608 73.7246H473.102V70.6973C473.102 68.2559 472.467 66.3027 471.198 64.8379C469.961 63.373 467.991 62.6406 465.289 62.6406C462.913 62.6406 461.041 63.2103 459.674 64.3496C458.34 65.4889 457.672 67.0514 457.672 69.0371H443.561C443.561 65.9772 444.505 63.1452 446.393 60.541C448.281 57.9368 450.95 55.9023 454.401 54.4375C457.851 52.9401 461.725 52.1914 466.022 52.1914C472.532 52.1914 477.692 53.8353 481.5 57.123C485.342 60.3783 487.262 64.9681 487.262 70.8926V93.793C487.295 98.806 487.995 102.598 489.362 105.17V106H475.104ZM463.434 96.1855C465.517 96.1855 467.438 95.7298 469.196 94.8184C470.954 93.8743 472.256 92.6211 473.102 91.0586V81.9766H467.829C460.765 81.9766 457.005 84.418 456.549 89.3008L456.5 90.1309C456.5 91.8887 457.119 93.3372 458.356 94.4766C459.593 95.6159 461.286 96.1855 463.434 96.1855ZM528.189 66.4004C526.269 66.14 524.576 66.0098 523.111 66.0098C517.773 66.0098 514.273 67.8164 512.613 71.4297V106H498.502V53.168H511.832L512.223 59.4668C515.055 54.6165 518.977 52.1914 523.99 52.1914C525.553 52.1914 527.018 52.403 528.385 52.8262L528.189 66.4004ZM554.761 40.1797V53.168H563.795V63.5195H554.761V89.8867C554.761 91.8398 555.136 93.2396 555.884 94.0859C556.633 94.9323 558.065 95.3555 560.181 95.3555C561.744 95.3555 563.127 95.2415 564.332 95.0137V105.707C561.565 106.553 558.716 106.977 555.787 106.977C545.891 106.977 540.845 101.98 540.65 91.9863V63.5195H532.935V53.168H540.65V40.1797H554.761Z" fill="white"/>
<circle cx="123.565" cy="69.5652" r="69.5652" fill="#FE5200"/>
<path d="M101.826 35.8633C101.826 35.311 102.274 34.8633 102.826 34.8633H128.906C140.965 34.8633 143.037 37.0489 149.652 43.4781C153.49 47.1696 155.626 62.1922 145.304 67.3912C137.649 71.2469 131.671 66.8044 131.671 71.7794C151.49 79.1093 157.347 98.9797 150.663 105.478C144.048 111.907 130.991 73.8356 118.932 73.8356L108.079 105.478H102.826C102.274 105.478 101.826 105.03 101.826 104.478V35.8633Z" fill="url(#paint0_linear)"/>
<path d="M137.392 592.524C137.392 581.235 131.208 572.083 123.579 572.083C115.95 572.083 109.765 581.235 109.765 592.524V663.086C109.765 674.376 115.95 683.528 123.579 683.528C131.208 683.528 137.392 674.376 137.392 663.086V592.524Z" fill="black"/>
<path d="M123.579 802.142C138.885 802.142 151.293 783.78 151.293 761.129C151.293 738.478 138.885 720.116 123.579 720.116C108.273 720.116 95.8646 738.478 95.8646 761.129C95.8646 783.78 108.273 802.142 123.579 802.142Z" fill="#FBDC8E"/>
<path d="M123.579 637.478C112.604 637.473 101.736 640.669 91.5962 646.881C81.4561 653.093 72.2422 662.201 64.481 673.683C56.7197 685.166 50.563 698.799 46.3625 713.803C42.162 728.807 40 744.889 40 761.13H207.157C207.157 744.889 204.995 728.807 200.795 713.803C196.594 698.799 190.438 685.166 182.676 673.683C174.915 662.201 165.701 653.093 155.561 646.881C145.421 640.669 134.553 637.473 123.579 637.478Z" fill="#FE5200"/>
<path d="M123.579 595.625V147" stroke="black" stroke-width="2" stroke-linecap="round" stroke-linejoin="round"/>
<path d="M750.162 1132.04C750.193 1126.02 749.298 1120.05 747.532 1114.52C745.765 1108.98 743.166 1103.99 739.897 1099.86C736.627 1095.73 732.757 1092.54 728.529 1090.51C724.3 1088.47 719.804 1087.63 715.32 1088.02C710.837 1088.42 706.462 1090.05 702.47 1092.81C698.479 1095.58 694.955 1099.42 692.119 1104.09C689.283 1108.76 687.196 1114.16 685.989 1119.97C684.781 1125.77 684.479 1131.84 685.101 1137.8L591.187 1302.64C587.179 1313.38 585.625 1325.47 586.72 1337.39C587.814 1349.31 591.509 1360.53 597.341 1369.65L604.708 1381.17L638.51 1372.11L676.821 1326.8L672.313 1275.45L719.637 1175.78L719.576 1175.71C727.86 1175 735.632 1170.1 741.313 1161.98C746.995 1153.87 750.158 1143.17 750.162 1132.04Z" fill="#FFC39F"/>
<path d="M100.708 1937.9L85.3781 1861.59L297.691 1746.03L320.316 1858.66L100.708 1937.9Z" fill="#FFC39F"/>
<path d="M49.4278 1977.28L0 1731.23L2.322 1730.39C21.2729 1723.55 41.4742 1727.08 58.4825 1740.21C75.4909 1753.33 87.9132 1774.97 93.0172 1800.37L93.0185 1800.38L123.207 1950.66L49.4278 1977.28Z" fill="#2F2E41"/>
<path d="M393.16 1925.71L345.476 1879.23L456.544 1610.59L526.923 1679.19L393.16 1925.71Z" fill="#FFC39F"/>
<path d="M371.708 1999.52L217.947 1849.65L219.362 1847.04C230.905 1825.77 248.28 1811.51 267.665 1807.41C287.051 1803.3 306.858 1809.69 322.731 1825.16L322.735 1825.16L416.647 1916.7L371.708 1999.52Z" fill="#2F2E41"/>
<path d="M798.51 1550.31L678.512 1394.07C668.039 1380.43 654.245 1372.32 639.667 1371.23C625.089 1370.14 610.707 1376.14 599.167 1388.13L372.592 1725.49L392.874 1767.77L609.213 1571.45L755.693 1828.18L895.412 1734.55L798.51 1550.31Z" fill="#251DC0"/>
<path d="M746.68 1583.53L658.792 1574.47L595.144 1553.79C591.548 1546.27 586.326 1540.41 580.175 1536.98C574.024 1533.55 567.238 1532.72 560.725 1534.6C554.213 1536.48 548.285 1540.99 543.736 1547.51C539.186 1554.03 536.232 1562.26 535.268 1571.1C534.304 1579.93 535.377 1588.95 538.344 1596.95C541.31 1604.94 546.028 1611.53 551.866 1615.83C557.703 1620.14 564.382 1621.95 571.009 1621.02C577.635 1620.09 583.891 1616.48 588.942 1610.65L588.932 1610.72L627.243 1631.86L791.75 1707.37L812.032 1686.22L746.68 1583.53Z" fill="#FFC39F"/>
<path d="M958.512 1909.73L908.933 1952.02H850.34L577.665 1816.1L178.789 1912.75L167.522 1797.98L532.595 1583.53L852.597 1725.49L958.512 1909.73Z" fill="#221CB4"/>
<path d="M852.596 1175.78C901.135 1175.78 940.484 1123.04 940.484 1057.99C940.484 992.931 901.135 940.192 852.596 940.192C804.057 940.192 764.708 992.931 764.708 1057.99C764.708 1123.04 804.057 1175.78 852.596 1175.78Z" fill="#FFC39F"/>
<path d="M1080 1528.29C1080 1599.38 1071.64 1670.03 1055.23 1737.63L1048.65 1764.76L1017.1 1958.06L983.301 1970.14L958.512 1927.86L908.934 1879.53L872.878 1801L841.959 1731.95L832.314 1710.39L798.511 1483.86L670.06 1387.21L627.242 1378.15L636.257 1344.92L674.567 1275.45L712.877 1269.41L724.144 1257.33L733.158 1263.37L782.849 1289.03L943.954 1197.8L967.526 1202.97L1048.65 1293.58C1069.39 1368.71 1080.01 1448.18 1080 1528.29Z" fill="url(#paint1_linear)"/>
<path opacity="0.1" d="M1046.25 1442.25C1045.1 1458.79 1039.59 1474.73 1030.27 1488.44L969.779 1577.49L855.837 1715.18C849.445 1722.91 837.165 1721.23 833.072 1712.08V1712.08C832.57 1710.96 832.223 1709.77 832.041 1708.55L805.925 1533.55C805.581 1531.24 807.367 1529.17 809.698 1529.17V1529.17C811.131 1529.17 812.443 1528.36 813.096 1527.09L889.763 1377.07C895.833 1365.2 904.655 1354.94 915.493 1347.17V1347.17C973.021 1305.9 1052.61 1350.29 1047.72 1420.92L1046.25 1442.25Z" fill="black"/>
<path d="M899.722 1350.3L812.033 1511.04L771.469 1571.45L735.414 1583.53L832.315 1725.49L969.779 1559.37L1034.06 1449.77V1407.76C1034.06 1337.84 950.275 1302.01 899.722 1350.3V1350.3Z" fill="#3027F2"/>
<path d="M784.237 970.4L774.714 975.311C773.269 973.999 772.03 972.318 771.069 970.365C770.108 968.412 769.444 966.224 769.114 963.926C768.784 961.629 768.794 959.267 769.145 956.975C769.496 954.683 770.181 952.506 771.16 950.569C771.211 950.467 771.263 950.366 771.316 950.266L753.719 949.162C765.015 928.998 779.377 912.279 795.855 900.11C812.333 887.942 830.551 880.602 849.304 878.576C868.057 876.55 886.917 879.884 904.636 888.358C922.355 896.833 938.53 910.253 952.09 927.732C952.892 924.034 961.625 931.229 965.191 938.525C966.389 932.507 974.578 961.598 977.474 982.162C978.815 975.315 983.971 986.369 979.454 996.975C982.316 996.414 983.609 1006.23 981.393 1011.7C984.524 1009.72 983.996 1021.44 980.602 1029.27C985.069 1028.74 980.22 1152.07 913.173 1143.08C908.505 1114.34 909.82 1116.13 904.324 1079.16C901.766 1075.52 898.964 1072.21 896.167 1068.9L881.039 1051C863.448 1030.19 847.446 1004.51 824.012 996.728C807.908 991.382 797.725 990.175 806.501 965.853C798.572 970.288 791.167 976.883 783.167 981.002C783.274 977.604 784.392 973.801 784.237 970.4Z" fill="#FE5200"/>
<path d="M896.54 1092.72C905.252 1092.72 912.314 1083.26 912.314 1071.58C912.314 1059.9 905.252 1050.44 896.54 1050.44C887.827 1050.44 880.765 1059.9 880.765 1071.58C880.765 1083.26 887.827 1092.72 896.54 1092.72Z" fill="#FFC39F"/>
<defs>
<linearGradient id="paint0_linear" x1="98.3092" y1="29.5895" x2="161.294" y2="105.197" gradientUnits="userSpaceOnUse">
<stop stop-color="white" stop-opacity="0.7"/>
<stop offset="1" stop-color="white"/>
</linearGradient>
<linearGradient id="paint1_linear" x1="853.621" y1="1197.8" x2="853.621" y2="1970.14" gradientUnits="userSpaceOnUse">
<stop stop-color="#2222A8"/>
<stop offset="1" stop-color="#161675"/>
</linearGradient>
</defs>
</svg>
